<?xml version="1.0" ?><svg xmlns="http://www.w3.org/2000/svg" width="133.65237mm" height="89.459373mm" viewBox="0 0 133.65237 89.459373">
    <path d="m 20165.996,-2684.3398 -1.156,1.625 1.168,62.5507 270.176,-0.875 1.906,-61.875 z" transform="translate(-49.660626,-29.210517) translate(1474.1729,-3636.4584) matrix(0.46070041,0,0,0.43105564,-8531.118,6708.7152) translate(-4730.5688,-4305.3989)" fill="#fff"/>
    <path d="m 438.42969,17538.236 -2.01172,2.649 2.0332,101.906 470.43945,-1.426 0.23438,-97.502 z m 473.80078,213.541 -473.7793,4.194 -2.01172,2.646 2.03321,95.391 470.4375,-1.426 z" transform="translate(-49.660626,-29.210517) translate(1474.1729,-3636.4584) matrix(0.46070041,0,0,0.43105564,-8531.118,6804.0845) matrix(0.5743067,0,0,0.6138032,15183.633,-18041.205)" fill="#0067c6"/>
    <path d="m -1362.2259,3711.993 10.0006,-0.5969 -5.8793,-7.7079 z" fill="#9bddf4" paint-order="markers stroke fill" transform="translate(-49.660626,-29.210517) translate(1474.1729,-3636.4584)"/>
    <path d="m -1362.8505,3714.9137 11.2949,-1.1472 -0.6697,-2.3704 -10.0006,0.5969 z" fill="#adcf11" paint-order="markers stroke fill" transform="translate(-49.660626,-29.210517) translate(1474.1729,-3636.4584)"/>
    <path d="m 909.67578,17530.77 c -0.18694,0.01 -0.36911,0.03 -0.54883,0.06 l -36.2539,0.631 c -56.68611,0.989 -249.68244,-0.868 -310.23047,-0.627 -96.84321,0.385 -132.22036,-0.144 -134.70313,2 -2.95823,2.554 -6.43153,17.121 -6.52148,57.41 -0.0605,26.888 1.52512,59.398 3.07812,87.481 3.40611,61.657 4.33021,83.646 4.03125,128.814 -0.30992,47.202 0.85187,54.014 9.79688,57.371 3.77499,1.415 35.30538,2.9 81.95117,3.86 41.69915,0.856 89.27352,1.313 105.72656,1.015 16.45493,-0.298 81.15442,-1.051 143.7793,-1.672 62.62526,-0.621 119.54535,-1.786 126.49023,-2.589 12.35604,-1.464 26.75742,-4.459 27.31641,-19.959 l 2.29688,-63.717 c 3.34488,-92.909 -6.68725,-228.521 -9.66211,-246.684 -0.26835,-1.648 -3.29575,-3.281 -5.97657,-3.387 v 0 c -0.19162,-0.02 -0.38336,-0.02 -0.57031,0 z m -72.49023,18.496 c 34.97169,0.05 58.62587,0.276 59.08593,0.736 0.84322,0.841 0.0981,27.064 4.59571,66.076 -0.0945,3.606 2.41142,19.339 -1.23242,18.713 -21.24284,-3.144 -87.96018,2.17 -253.61915,1.947 -131.10916,-0.177 -201.74099,-0.987 -202.78906,-2.326 -0.88403,-1.131 -0.93869,-27.321 -0.26367,-46.258 1.07792,-30.307 2.00506,-37.609 21.46094,-37.73 11.06721,-0.07 47.58144,2.26 81.14062,1.099 33.884,-1.172 161.76806,-2.111 253.31641,-2.252 13.73225,-0.02 26.64745,-0.02 38.30469,0 z m 45.77929,102.384 c 11.67081,0.04 18.51349,0.178 18.86914,0.53 0.21544,0.208 0.90228,13.309 1.5293,33.091 0.62816,19.784 1.33724,39.8 1.57422,44.481 l 0.43359,8.512 -58.94726,1.275 c -62.09159,1.343 -116.80496,0.186 -215.58594,5.014 -53.38129,2.587 -109.70575,0.893 -162.94531,3.324 -16.33777,1.095 -17.8506,0.872 -17.72852,-2.613 0.0756,-2.096 -1.07197,-25.085 -2.54297,-51.086 -1.47477,-26 -2.59776,-33.062 -2.50781,-35.606 l 0.17383,-4.625 h 148.88086 c 96.98079,0 238.22339,-2.397 288.79687,-2.297 z m -210.15039,3.94 c -4.38209,-0.01 -8.74094,0.351 -12.22656,1.131 -3.82224,0.855 -8.91496,3.006 -11.31836,4.779 -9.33732,6.889 -17.31364,22.69 -15.36719,30.443 1.48233,5.615 5.48985,3.155 8.76368,-1.916 4.30828,-10.249 11.1317,-17.508 16.59765,-20.33 8.92989,-4.61 19.28661,-3.61 24.61914,-0.754 5.52265,2.958 12.65607,10.662 16.01758,17.381 2.17172,4.341 6.27057,7.865 11.07813,3.682 7.35496,-6.4 -4.37556,-23.348 -19.96875,-31.51 -3.52087,-1.843 -10.89182,-2.889 -18.19532,-2.906 z m 0.76367,13.81 c -0.3173,0 -0.63912,0 -0.96874,0.04 -6.00189,0.708 -25.96497,36.901 -26.25977,43.182 -0.20334,4.349 -0.51338,8.656 6.03125,9.324 9.19786,0.939 32.48514,-1.363 40.86133,-2.969 11.26941,-2.158 13.54665,-7.09 -2.64258,-30.988 -8.67898,-12.811 -12.26192,-18.449 -17.02149,-18.592 z m -0.52343,11.692 c 0.44371,0.01 3.32915,2.095 6.44726,8.281 4.12536,8.183 5.14086,11.246 3.72657,11.246 -1.06885,0 -2.33603,-0.635 -2.81641,-1.412 -0.57071,-0.924 -1.75712,-0.613 -3.42578,0.897 -1.95666,1.771 -2.91864,1.946 -4.11524,0.75 -2.26356,-2.264 -7.66211,-1.961 -7.66211,0.429 0,1.095 -0.89606,1.99 -1.99023,1.99 -1.09417,0 -1.99023,-0.271 -1.99023,-0.607 0,-1.517 11.11032,-21.612 11.82617,-21.574 z m 0.1914,11.568 c -2.91477,0 -4.61947,1.999 -3.39453,3.981 1.5292,2.474 5.97071,1.485 5.97071,-1.329 0,-1.741 -0.88522,-2.652 -2.57618,-2.652 z m 37.47657,5.262 c -5.40693,0.147 -6.33785,6.367 -1.17383,12.389 1.88485,2.197 5.89855,-0.168 6.48437,-3.209 0.69166,-3.591 -1.85042,-8.859 -4.16992,-9.127 -0.39975,-0.05 -0.78016,-0.06 -1.14062,-0.05 z m -72.4336,1.064 c -0.20936,0 -0.4288,0.02 -0.6582,0.05 -3.97296,0.544 -7.72862,9.606 -4.70313,12.635 1.07641,1.077 3.95784,1.661 6.55665,0.664 2.31621,-0.889 5.29483,-13.479 -1.19532,-13.352 z m 36.19532,8.414 c 15.99722,-0.07 21.39381,1.613 9.6289,3 -3.46583,0.409 -11.28423,1.128 -17.37305,1.6 -10.83666,0.839 -11.03898,0.801 -9.62695,-1.838 1.32359,-2.472 2.75302,-2.701 17.3711,-2.762 z m 32.99609,8.073 c -2.13014,0.01 -5.1778,1.319 -8.53516,4.189 -16.55433,14.157 -38.65763,13.552 -53.29687,0 -7.0851,-6.559 -11.33881,-1.294 -9.53711,3.211 4.16542,10.416 13.64433,13.674 21.60742,16.426 v 0 c 6.68825,2.22 18.72895,2.323 27.03711,0.471 7.97594,-2.848 18.61082,-8.954 22.90625,-14.795 4.3689,-5.941 3.36859,-9.519 -0.18164,-9.498 z m 197.78125,41.111 -1.60938,40.297 c -0.9959,24.945 -1.99822,40.991 -2.62109,44.398 -0.57222,3.126 -3.78073,6.581 -11.02344,5.828 l -201.91211,1.352 c -114.67313,0.745 -216.18222,1.914 -225.57812,2.598 l -17.08008,1.244 2.15039,-15.996 c 1.18224,-8.799 2.74864,-27.987 3.2207,-42.647 l 1.0625,-33.166 14.31641,1.35 c 18.26872,1.725 159.25426,4.473 228.45703,0.412 29.15301,-1.711 88.46743,-3.688 131.81445,-4.391 z" transform="translate(-49.660626,-29.210517) translate(1474.1729,-3636.4584) matrix(0.26458333,0,0,0.26458333,-1536.012,-972.67847)" fill="#030303"/>
</svg>